<svg xmlns="http://www.w3.org/2000/svg" width="19" height="19" fill="none" viewBox="0 0 19 19">
  <path stroke="#fff" stroke-linecap="round" stroke-linejoin="round" stroke-width="1.569" d="M13.62 6.119h.007M3.119 9.869c0-1.885 0-2.828.265-3.585a4.725 4.725 0 0 1 2.9-2.9c.757-.265 1.7-.265 3.585-.265s2.828 0 3.586.265a4.725 4.725 0 0 1 2.899 2.9c.265.757.265 1.7.265 3.585s0 2.828-.265 3.586a4.726 4.726 0 0 1-2.9 2.899c-.757.265-1.7.265-3.585.265s-2.828 0-3.585-.265a4.725 4.725 0 0 1-2.9-2.9c-.265-.757-.265-1.7-.265-3.585Zm9.583-.42a2.864 2.864 0 1 1-5.666.84 2.864 2.864 0 0 1 5.666-.84Z"/>
</svg>
