<svg xmlns="http://www.w3.org/2000/svg" width="25" height="24" fill="none" viewBox="0 0 25 24">
  <path fill="#5331FD" d="M10.634 2.23a5 5 0 0 1 2.982 0c.609.19 1.135.525 1.68.963.528.425 1.132.996 1.88 1.702l2.716 2.565c.657.62 1.111 1.049 1.443 1.567.293.458.51.96.642 1.488.148.598.148 1.222.148 2.125v2.003c0 1.084 0 1.958-.058 2.666-.06.729-.185 1.369-.487 1.96a5 5 0 0 1-2.185 2.186c-.556.284-1.154.411-1.827.475-.421.04-.9.057-1.443.064V16a4 4 0 0 0-8 0v5.994a18.073 18.073 0 0 1-1.443-.064c-.673-.064-1.27-.192-1.827-.475A5 5 0 0 1 2.67 19.27c-.302-.592-.428-1.232-.487-1.961-.058-.708-.058-1.582-.058-2.666V12.64c0-.903 0-1.527.148-2.125a5 5 0 0 1 .642-1.488c.332-.518.786-.947 1.443-1.567l2.716-2.565c.748-.706 1.352-1.277 1.88-1.702.545-.438 1.071-.773 1.68-.964Z"/>
  <path fill="#5331FD" d="M14.125 22h-4v-6a2 2 0 1 1 4 0v6Z"/>
</svg>
