<svg xmlns="http://www.w3.org/2000/svg" width="25" height="24" fill="none" viewBox="0 0 25 24">
  <path stroke="#97A3B6" stroke-linecap="round" stroke-linejoin="round" stroke-width="2" d="M14.625 2.058V3.2c0 1.68 0 2.52.327 3.162a3 3 0 0 0 1.311 1.311C16.905 8 17.745 8 19.425 8h1.142m-5.942-5.942C14.232 2 13.761 2 12.974 2h-1.949c-2.24 0-3.36 0-4.216.436a4 4 0 0 0-1.748 1.748c-.436.856-.436 1.976-.436 4.216v7.2c0 2.24 0 3.36.436 4.216a4 4 0 0 0 1.748 1.748C7.665 22 8.785 22 11.025 22h3.2c2.24 0 3.36 0 4.216-.436a4 4 0 0 0 1.748-1.748c.436-.856.436-1.976.436-4.216V9.651c0-.787 0-1.257-.058-1.651m-5.942-5.942c.096.014.187.03.277.053.408.098.798.26 1.156.478.404.248.75.594 1.442 1.286l1.25 1.25c.692.692 1.038 1.038 1.286 1.442a4 4 0 0 1 .479 1.156c.021.09.038.181.052.277"/>
</svg>
