<svg xmlns="http://www.w3.org/2000/svg" width="80" height="80" fill="none" viewBox="0 0 80 80">
  <mask id="a" width="80" height="80" x="0" y="0" maskUnits="userSpaceOnUse" style="mask-type:alpha">
    <circle cx="39.995" cy="39.995" r="39.995" fill="#E9AD16"/>
  </mask>
  <g mask="url(#a)">
    <circle cx="39.995" cy="39.995" r="39.995" fill="#F7C028"/>
    <path fill="#FFF68E" d="M69.993 40.993c.5 1 4 20.5-17.999 26.5 6.5-3 19.2-12.5 18-26.5Z" style="mix-blend-mode:lighten"/>
    <path fill="#FEF694" fill-opacity=".4" d="M-22.998 28.796h90.127v15.775h-90.127z" style="mix-blend-mode:lighten" transform="rotate(-32.026 -22.998 28.796)"/>
    <path fill="#FEF694" fill-opacity=".4" d="M-13.996 47.794h90.127v3.329h-90.127z" style="mix-blend-mode:lighten" transform="rotate(-32.026 -13.996 47.794)"/>
    <path fill="#FEF694" fill-opacity=".4" d="M-7 51.794h90.127v8.134H-7z" style="mix-blend-mode:lighten" transform="rotate(-32.026 -7 51.794)"/>
    <path fill="#FFF68E" d="M10 12.499c10.999-7 25.198-14.299 49.995-9.5C46.997-2.5 24-3.1 10 12.5Z" style="mix-blend-mode:lighten"/>
    <mask id="b" width="63" height="63" x="8" y="8" maskUnits="userSpaceOnUse" style="mask-type:alpha">
      <circle cx="39.995" cy="39.994" r="30.996" fill="#F0A110"/>
    </mask>
    <g mask="url(#b)">
      <circle cx="39.995" cy="39.994" r="30.996" fill="#F0A110"/>
      <path fill="#AF361F" d="M27.524 10.85c-15.267 11.565-24.52 37.472-6.477 55.515-9.87-5.86-24.057-38.398 6.477-55.516Z"/>
    </g>
    <path fill="#fff" d="M59.753-.773a.24.24 0 0 1 .48 0l.283 2.535c.366 3.274 2.795 5.856 5.877 6.244l2.386.301c.285.036.285.475 0 .51l-2.386.301c-3.082.389-5.511 2.97-5.877 6.244l-.283 2.536a.24.24 0 0 1-.48 0l-.284-2.536c-.365-3.274-2.795-5.855-5.876-6.244l-2.387-.3c-.284-.036-.284-.475 0-.51l2.387-.302c3.081-.388 5.51-2.97 5.876-6.244l.284-2.535ZM.381 35.108a.12.12 0 0 1 .24 0l.142 1.268c.183 1.637 1.397 2.928 2.938 3.122l1.194.15c.142.019.142.238 0 .256l-1.194.15c-1.54.194-2.755 1.485-2.938 3.122L.62 44.444a.12.12 0 0 1-.24 0l-.142-1.268c-.182-1.637-1.397-2.928-2.938-3.122l-1.193-.15c-.143-.018-.143-.237 0-.255l1.193-.15c1.54-.195 2.756-1.486 2.938-3.123l.142-1.268ZM70.825 59.04a.05.05 0 0 1 .1 0l.06.53c.076.685.584 1.226 1.229 1.307l.5.063c.059.007.059.099 0 .107l-.5.063c-.645.08-1.153.62-1.23 1.306l-.059.53a.05.05 0 0 1-.1 0l-.06-.53c-.076-.685-.584-1.225-1.229-1.306l-.5-.063c-.059-.008-.059-.1 0-.107l.5-.063c.645-.081 1.153-.622 1.23-1.306l.059-.53Zm-57.452 3.987a.038.038 0 0 1 .075 0l.044.398c.058.514.439.919.922.98l.375.047c.044.006.044.075 0 .08l-.375.047c-.483.061-.864.466-.922.98l-.044.398a.038.038 0 0 1-.075 0l-.045-.398c-.057-.514-.438-.919-.922-.98l-.375-.047c-.044-.005-.044-.074 0-.08l.375-.047c.483-.061.865-.466.922-.98l.045-.398Zm49.972-3.896a.147.147 0 0 1 .293 0l.174 1.55c.223 2 1.708 3.579 3.591 3.816l1.459.184c.174.022.174.29 0 .312l-1.459.184c-1.883.237-3.368 1.815-3.592 3.816l-.173 1.55a.147.147 0 0 1-.293 0l-.173-1.55c-.224-2.001-1.709-3.579-3.592-3.816l-1.458-.184c-.174-.022-.174-.29 0-.312l1.458-.184c1.883-.237 3.368-1.815 3.592-3.816l.173-1.55Z"/>
    <path fill="#EFAF4D" d="M21.22 46.589v-3.54h-3.54v-2.047h3.54v-3.52h2.047v3.52h3.52v2.048h-3.52v3.539H21.22Zm9.998.976v-9.317H28.31v-1.895h1.167c1.626 0 2.257-.573 2.257-2.372h1.97v13.584h-2.486Zm11.11.306c-3.482 0-5.663-2.717-5.663-7.079 0-4.381 2.181-7.117 5.663-7.117s5.644 2.736 5.644 7.117c0 4.362-2.162 7.079-5.644 7.079Zm0-2.162c1.99 0 3.08-1.703 3.08-4.917 0-3.214-1.09-4.955-3.08-4.955s-3.08 1.741-3.08 4.955 1.09 4.917 3.08 4.917ZM55.5 47.87c-3.482 0-5.663-2.717-5.663-7.079 0-4.381 2.181-7.117 5.663-7.117s5.644 2.736 5.644 7.117c0 4.362-2.162 7.079-5.644 7.079Zm0-2.162c1.99 0 3.08-1.703 3.08-4.917 0-3.214-1.09-4.955-3.08-4.955s-3.08 1.741-3.08 4.955 1.09 4.917 3.08 4.917Z" style="mix-blend-mode:multiply"/>
  </g>
</svg>
