<svg width="74" height="74" viewBox="0 0 74 74" fill="none" xmlns="http://www.w3.org/2000/svg">
<path d="M33.7931 1.1949L26.3994 7.63292H37.0028V2.5532e-05C35.8585 -0.00367377 34.713 0.394618 33.7931 1.1949Z" fill="#FDF0BC"/>
<path d="M40.1717 1.18748C39.2617 0.399525 38.1334 0.0036993 37.0039 0V7.63289H47.6073L40.1717 1.18748Z" fill="url(#paint0_linear_707_12809)"/>
<path d="M11.2099 11.7504L9.68457 21.4352L17.807 14.6198L12.9005 8.77246C12.0213 9.50492 11.3998 10.5469 11.2099 11.7504Z" fill="#FDF0BC"/>
<path d="M16.0924 7.64446C14.8889 7.62473 13.7692 8.04768 12.9023 8.77151L17.8089 14.6189L25.9313 7.80353L16.0924 7.64446Z" fill="url(#paint1_linear_707_12809)"/>
<path d="M0.696579 34.3532L5.75229 42.7531L7.59331 32.3112L0.0775624 30.9844C-0.125899 32.1114 0.0676976 33.3088 0.696579 34.3532Z" fill="#FDF0BC"/>
<path d="M1.79707 28.0714C0.86361 28.831 0.277887 29.8742 0.078125 30.9852L7.59511 32.3108L9.43613 21.8689L1.79707 28.0714Z" fill="url(#paint2_linear_707_12809)"/>
<path d="M7.17057 58.426L16.4435 61.6099L11.1424 52.427L4.53174 56.2434C5.1002 57.2373 6.01763 58.0302 7.17057 58.426Z" fill="url(#paint3_linear_707_12809)"/>
<path d="M3.97533 52.9062C3.74721 54.0875 3.96917 55.2639 4.53023 56.2442L11.1409 52.4278L5.83978 43.2449L3.97533 52.9062Z" fill="url(#paint4_linear_707_12809)"/>
<path d="M27.603 72.7049L36.7526 69.1844L26.7892 65.5579L24.1787 72.7308C25.2527 73.1254 26.4661 73.1427 27.603 72.7049Z" fill="url(#paint5_linear_707_12809)"/>
<path d="M21.6076 70.5301C22.1921 71.5819 23.1182 72.3403 24.1787 72.7299L26.7891 65.557L16.8257 61.9304L21.6076 70.5301Z" fill="url(#paint6_linear_707_12809)"/>
<path d="M52.435 70.5091L57.1812 61.9304L47.2178 65.557L49.8282 72.7299C50.9035 72.3415 51.8444 71.5757 52.435 70.5091Z" fill="url(#paint7_linear_707_12809)"/>
<path d="M46.4437 72.697C47.5683 73.1274 48.7644 73.1126 49.8273 72.7291L47.2169 65.5562L37.2534 69.1827L46.4437 72.697Z" fill="url(#paint8_linear_707_12809)"/>
<path d="M70.0443 52.8668L68.1663 43.2449L62.8652 52.4278L69.4759 56.2442C70.0505 55.254 70.2786 54.0629 70.0443 52.8668Z" fill="url(#paint9_linear_707_12809)"/>
<path d="M66.8623 58.394C67.9992 58.0006 68.9068 57.2201 69.4752 56.2434L62.8646 52.427L57.5635 61.6099L66.8623 58.394Z" fill="url(#paint10_linear_707_12809)"/>
<path d="M72.1941 28.0319L64.5698 21.8689L66.4108 32.3108L73.9278 30.9852C73.7342 29.8582 73.1423 28.7989 72.1941 28.0319Z" fill="url(#paint11_linear_707_12809)"/>
<path d="M73.3091 34.3113C73.9281 33.2792 74.1217 32.0979 73.9281 30.9844L66.4111 32.31L68.2522 42.7519L73.3091 34.3113Z" fill="url(#paint12_linear_707_12809)"/>
<path d="M57.8776 7.62362L48.0757 7.80242L56.1981 14.6178L61.1046 8.7704C60.2304 8.03301 59.0971 7.60142 57.8776 7.62362Z" fill="url(#paint13_linear_707_12809)"/>
<path d="M62.7687 11.7193C62.5788 10.5306 61.9684 9.5022 61.1052 8.77344L56.1987 14.6208L64.3212 21.4362L62.7687 11.7193Z" fill="url(#paint14_linear_707_12809)"/>
<path d="M37.0021 63.3906C51.3035 63.3906 62.8972 51.7969 62.8972 37.4955C62.8972 23.194 51.3035 11.6003 37.0021 11.6003C22.7006 11.6003 11.1069 23.194 11.1069 37.4955C11.1069 51.7969 22.7006 63.3906 37.0021 63.3906Z" fill="url(#paint15_radial_707_12809)"/>
<path d="M37.0024 9.28784C21.4234 9.28784 8.79395 21.916 8.79395 37.495C8.79395 53.074 21.4234 65.7034 37.0024 65.7034C52.5814 65.7034 65.2108 53.074 65.2108 37.495C65.2108 21.916 52.5814 9.28784 37.0024 9.28784ZM37.0024 63.3877C22.7021 63.3877 11.1097 51.7953 11.1097 37.495C11.1097 23.1948 22.7021 11.6024 37.0024 11.6024C51.3026 11.6024 62.895 23.1948 62.895 37.495C62.895 51.7953 51.3026 63.3877 37.0024 63.3877Z" fill="url(#paint16_linear_707_12809)"/>
<path d="M37.0024 5.6875C19.4356 5.6875 5.1958 19.9273 5.1958 37.4941C5.1958 55.0609 19.4356 69.3007 37.0024 69.3007C54.5692 69.3007 68.809 55.0609 68.809 37.4941C68.809 19.9273 54.5692 5.6875 37.0024 5.6875ZM37.0024 65.689C21.4308 65.689 8.80755 53.0657 8.80755 37.4941C8.80755 21.9225 21.4308 9.30049 37.0024 9.30049C52.574 9.30049 65.1973 21.9237 65.1973 37.4953C65.1973 53.0669 52.574 65.689 37.0024 65.689Z" fill="url(#paint17_linear_707_12809)"/>
<path d="M29.8628 50.4721C29.4312 50.4721 29.0305 50.334 28.6766 50.0874C28.6309 50.0566 28.6001 50.0257 28.5693 49.9949C28.5385 49.9801 28.5224 49.9493 28.5076 49.9333C28.446 49.8864 28.4152 49.8408 28.3695 49.7951C28.3387 49.7643 28.3227 49.7335 28.2931 49.7027L28.2783 49.6879C28.2475 49.657 28.2314 49.6262 28.2166 49.5954L28.1858 49.5485C28.1241 49.456 28.0785 49.3636 28.0317 49.2711C28.0169 49.2255 28.0008 49.1786 27.9848 49.133C27.97 49.0861 27.954 49.0257 27.9392 48.9788C27.9232 48.9172 27.9084 48.8407 27.8923 48.763C27.8923 48.7322 27.8775 48.6866 27.8775 48.6558C27.8775 48.5941 27.8627 48.5324 27.8627 48.4708C27.8627 48.3635 27.8775 48.255 27.8936 48.1317L29.0798 41.2313L24.0734 36.3482C23.9809 36.2557 23.8884 36.1484 23.812 36.0399C23.7195 35.9018 23.6579 35.7933 23.6122 35.67C23.5974 35.6243 23.5666 35.5627 23.5506 35.485C23.5037 35.3 23.4741 35.1151 23.4741 34.9153C23.4741 34.8537 23.4741 34.808 23.4741 34.7464C23.4741 34.6539 23.4889 34.5614 23.5197 34.4689C23.5197 34.4541 23.5345 34.4233 23.5345 34.4073C23.5506 34.3604 23.5506 34.3148 23.5654 34.2692C23.5654 34.2544 23.5802 34.2223 23.5962 34.1767C23.611 34.1298 23.627 34.0842 23.6579 34.0386C23.7035 33.9461 23.7503 33.8536 23.8268 33.7463C23.8576 33.6847 23.9032 33.6391 23.9501 33.5922C23.9501 33.5922 23.9501 33.5774 23.9649 33.5774L24.2115 33.1766H24.4273C24.4581 33.1606 24.4729 33.1458 24.5038 33.1298C24.5346 33.115 24.5962 33.0842 24.6419 33.0533C24.7035 33.0225 24.78 32.9917 24.8725 32.9609C24.9033 32.9461 24.9489 32.93 24.9958 32.93C25.0574 32.9152 25.1191 32.8992 25.1955 32.8832L32.1268 31.8819L35.1762 25.6436C35.5154 24.9506 36.2084 24.519 36.9778 24.519C37.5327 24.519 38.0716 24.7496 38.4563 25.1504C38.518 25.2268 38.5796 25.2885 38.6252 25.3662C38.6869 25.4587 38.7485 25.5511 38.7942 25.6436L41.8905 31.8967L48.8057 32.898C49.5764 33.0052 50.2078 33.5453 50.4383 34.284C50.4544 34.3308 50.4692 34.3604 50.4692 34.4073C50.4692 34.4221 50.4692 34.4221 50.484 34.4381C50.4988 34.485 50.5148 34.5306 50.5148 34.5922C50.5148 34.607 50.5148 34.607 50.5148 34.6231C50.5296 34.6847 50.5296 34.7304 50.5296 34.792C50.5456 35.0843 50.4988 35.3925 50.3755 35.67C50.3286 35.7933 50.2682 35.9006 50.1905 36.0091L50.1745 36.0239C50.098 36.1312 50.0055 36.2397 49.913 36.3322L44.9066 41.2152L46.0929 48.0996C46.2162 48.8543 45.924 49.6089 45.2914 50.0714C45.1372 50.1786 44.9523 50.2872 44.7673 50.3488C44.7513 50.3488 44.7365 50.3648 44.7057 50.3648C44.5059 50.4265 44.3049 50.4573 44.1051 50.4573C43.7821 50.4573 43.4578 50.3809 43.1655 50.2267L36.9741 46.9763L30.7827 50.2267C30.509 50.3957 30.1859 50.4721 29.8628 50.4721Z" fill="#DF771E"/>
<path d="M36.9778 25.5046V38.2426L32.7261 32.8058L36.053 26.0756C36.254 25.7056 36.6239 25.5046 36.9778 25.5046Z" fill="#FFFAF6"/>
<path d="M49.4995 34.608L36.9922 38.2431L41.2427 32.8064L48.6672 33.8841C49.084 33.9606 49.3762 34.2528 49.4995 34.608Z" fill="#FEE0AC"/>
<path d="M44.711 49.2863L36.9795 38.2427L43.8491 40.8766L45.1118 48.2703C45.203 48.7018 45.0181 49.0705 44.711 49.2863Z" fill="#ECB76B"/>
<path d="M36.9774 38.2427V45.8669L30.3384 49.3628C29.9537 49.5625 29.5529 49.5009 29.2446 49.2863L36.9774 38.2427Z" fill="#F1A341"/>
<path d="M41.2293 32.8058L36.9775 38.2426V25.5046C37.255 25.5046 37.5324 25.6119 37.7322 25.8277C37.763 25.8585 37.7939 25.9042 37.8247 25.951C37.8555 25.9979 37.8863 26.0435 37.9011 26.0891L41.2293 32.8058Z" fill="#FFE9BA"/>
<path d="M49.4694 35.302C49.4386 35.3636 49.4078 35.4253 49.3769 35.4869C49.3301 35.5486 49.2845 35.5942 49.2388 35.6559L43.8637 40.8929L36.9941 38.259L49.5015 34.6238C49.5015 34.6386 49.5163 34.6546 49.5163 34.6706C49.5163 34.6867 49.5323 34.7015 49.5323 34.7323C49.5323 34.7483 49.5323 34.7483 49.5323 34.7483C49.5323 34.7631 49.5323 34.7792 49.5323 34.7939C49.5323 34.8248 49.5323 34.8408 49.5323 34.8704C49.5471 35.0085 49.5311 35.1626 49.4694 35.302Z" fill="#E49632"/>
<path d="M44.7103 49.2863C44.6339 49.348 44.5414 49.3936 44.4329 49.4244C44.4181 49.4244 44.4181 49.4244 44.402 49.4392C44.1554 49.5157 43.878 49.5009 43.6166 49.3628L36.9775 45.8669V38.2427L44.7103 49.2863Z" fill="#E29136"/>
<path d="M36.9777 38.2427L29.2462 49.2863C29.2314 49.2703 29.2154 49.2555 29.2006 49.2395C29.1858 49.2247 29.1698 49.2086 29.1537 49.1926C29.1389 49.1778 29.1229 49.1618 29.0921 49.131C29.076 49.1162 29.0612 49.1001 29.0452 49.0841C29.0292 49.0681 29.0304 49.0693 29.0304 49.0533C29.0156 49.0385 28.9996 49.0224 28.9996 49.0064C28.9688 48.9608 28.9379 48.9139 28.9231 48.8683C28.9083 48.8535 28.9083 48.8214 28.8923 48.7919C28.8775 48.761 28.8775 48.745 28.8615 48.7154C28.8467 48.6846 28.8467 48.639 28.8467 48.6081C28.8467 48.5933 28.8467 48.5613 28.8467 48.5465C28.8467 48.5156 28.8467 48.4848 28.8467 48.454C28.8467 48.3923 28.8467 48.3307 28.8615 48.269L30.1242 40.8753L36.9777 38.2427Z" fill="#FED891"/>
<path d="M36.9776 38.243L24.4702 34.6078C24.4702 34.593 24.485 34.577 24.485 34.5609C24.4998 34.5301 24.4998 34.4993 24.5158 34.4845C24.5467 34.4228 24.5775 34.3772 24.6083 34.3304C24.6231 34.2995 24.6392 34.2835 24.67 34.2539C24.686 34.2391 24.7008 34.207 24.7316 34.1923C24.7464 34.1775 24.7785 34.1466 24.7933 34.1306C24.8081 34.1146 24.8389 34.0998 24.8549 34.0837C24.8858 34.0689 24.9166 34.0369 24.9474 34.0221C24.9622 34.0073 24.9931 33.9913 25.0239 33.9913C25.0707 33.9765 25.1003 33.9604 25.1472 33.9444C25.162 33.9444 25.178 33.9296 25.2088 33.9296C25.2397 33.9148 25.2853 33.9148 25.3322 33.8988L32.7567 32.821L36.9776 38.243Z" fill="#FFF3D9"/>
<path d="M36.9779 38.2428L30.1243 40.8915L24.7492 35.6545C24.6875 35.6076 24.6567 35.5472 24.6111 35.4855C24.5803 35.4239 24.5346 35.3622 24.5186 35.3006C24.5038 35.2697 24.4878 35.2389 24.4878 35.2081C24.4569 35.1156 24.4409 35.0083 24.4409 34.9158C24.4409 34.885 24.4409 34.8542 24.4409 34.8234C24.4409 34.7777 24.4409 34.7469 24.4569 34.7001C24.4569 34.6853 24.4717 34.6692 24.4717 34.6384C24.4717 34.6236 24.4865 34.6076 24.4865 34.5928L36.9779 38.2428Z" fill="#ECB76B"/>
<defs>
<linearGradient id="paint0_linear_707_12809" x1="37.5223" y1="3.81645" x2="47.2593" y2="3.81645" gradientUnits="userSpaceOnUse">
<stop stop-color="#FEE998"/>
<stop offset="1" stop-color="#FCC15B"/>
</linearGradient>
<linearGradient id="paint1_linear_707_12809" x1="15.8671" y1="11.2633" x2="25.5848" y2="3.1086" gradientUnits="userSpaceOnUse">
<stop stop-color="#FEE998"/>
<stop offset="1" stop-color="#FCC15B"/>
</linearGradient>
<linearGradient id="paint2_linear_707_12809" x1="9.61004" y1="21.8471" x2="4.12637" y2="30.8559" gradientUnits="userSpaceOnUse">
<stop stop-color="#FCC15B"/>
<stop offset="1" stop-color="#FEE998"/>
</linearGradient>
<linearGradient id="paint3_linear_707_12809" x1="7.03183" y1="54.1216" x2="16.563" y2="60.3886" gradientUnits="userSpaceOnUse">
<stop stop-color="#FFC05F"/>
<stop offset="1" stop-color="#ED892B"/>
</linearGradient>
<linearGradient id="paint4_linear_707_12809" x1="5.94848" y1="43.4447" x2="7.64581" y2="54.151" gradientUnits="userSpaceOnUse">
<stop stop-color="#FCC15B"/>
<stop offset="1" stop-color="#FEE998"/>
</linearGradient>
<linearGradient id="paint5_linear_707_12809" x1="25.9611" y1="69.2721" x2="35.3617" y2="71.3611" gradientUnits="userSpaceOnUse">
<stop stop-color="#FEAC3E"/>
<stop offset="1" stop-color="#F08223"/>
</linearGradient>
<linearGradient id="paint6_linear_707_12809" x1="16.3555" y1="61.8486" x2="24.9727" y2="68.899" gradientUnits="userSpaceOnUse">
<stop stop-color="#FFA135"/>
<stop offset="1" stop-color="#FEB431"/>
</linearGradient>
<linearGradient id="paint7_linear_707_12809" x1="57.2186" y1="61.8691" x2="48.6232" y2="69.2677" gradientUnits="userSpaceOnUse">
<stop stop-color="#FFAA3D"/>
<stop offset="1" stop-color="#ED8B1C"/>
</linearGradient>
<linearGradient id="paint8_linear_707_12809" x1="37.2912" y1="69.8694" x2="48.2585" y2="69.2601" gradientUnits="userSpaceOnUse">
<stop stop-color="#FF962D"/>
<stop offset="1" stop-color="#E56005"/>
</linearGradient>
<linearGradient id="paint9_linear_707_12809" x1="68.5694" y1="43.2835" x2="66.3643" y2="54.0187" gradientUnits="userSpaceOnUse">
<stop stop-color="#FDBD41"/>
<stop offset="1" stop-color="#FEB334"/>
</linearGradient>
<linearGradient id="paint10_linear_707_12809" x1="71.4593" y1="45.1738" x2="60.8559" y2="63.5388" gradientUnits="userSpaceOnUse">
<stop stop-color="#F6942F"/>
<stop offset="1" stop-color="#EA6F11"/>
</linearGradient>
<linearGradient id="paint11_linear_707_12809" x1="64.0376" y1="22.1777" x2="70.4207" y2="31.6363" gradientUnits="userSpaceOnUse">
<stop stop-color="#FDBD41"/>
<stop offset="1" stop-color="#FEB334"/>
</linearGradient>
<linearGradient id="paint12_linear_707_12809" x1="67.8548" y1="42.7251" x2="70.35" y2="31.6998" gradientUnits="userSpaceOnUse">
<stop stop-color="#FD9D24"/>
<stop offset="1" stop-color="#FF9515"/>
</linearGradient>
<linearGradient id="paint13_linear_707_12809" x1="58.5284" y1="11.5503" x2="48.6636" y2="6.79202" gradientUnits="userSpaceOnUse">
<stop stop-color="#FCC15B"/>
<stop offset="1" stop-color="#FEE998"/>
</linearGradient>
<linearGradient id="paint14_linear_707_12809" x1="58.5765" y1="10.9467" x2="63.2768" y2="21.3918" gradientUnits="userSpaceOnUse">
<stop stop-color="#FF9515"/>
<stop offset="1" stop-color="#FFBE41"/>
</linearGradient>
<radialGradient id="paint15_radial_707_12809" cx="0" cy="0" r="1" gradientUnits="userSpaceOnUse" gradientTransform="translate(37.0022 37.4949) scale(25.8951)">
<stop offset="0.8428" stop-color="#FAAA31"/>
<stop offset="1" stop-color="#F57E16"/>
</radialGradient>
<linearGradient id="paint16_linear_707_12809" x1="37.0025" y1="9.28736" x2="37.0025" y2="65.7041" gradientUnits="userSpaceOnUse">
<stop offset="0.0226" stop-color="#FD9A18"/>
<stop offset="0.3764" stop-color="#FEC752"/>
<stop offset="1" stop-color="#FFA422"/>
</linearGradient>
<linearGradient id="paint17_linear_707_12809" x1="37.0026" y1="5.59428" x2="37.0026" y2="69.2078" gradientUnits="userSpaceOnUse">
<stop stop-color="#FFDB69"/>
<stop offset="0.1799" stop-color="#FEE7B0"/>
<stop offset="0.24" stop-color="#FEE9BA"/>
<stop offset="0.2592" stop-color="#FDECD0"/>
<stop offset="0.2953" stop-color="#FEDA92"/>
<stop offset="0.3254" stop-color="#FFCD64"/>
<stop offset="0.3405" stop-color="#FFC853"/>
<stop offset="0.7613" stop-color="#FF9114"/>
<stop offset="1" stop-color="#F57E16"/>
</linearGradient>
</defs>
</svg>
