<svg xmlns="http://www.w3.org/2000/svg" width="25" height="24" fill="none" viewBox="0 0 25 24">
  <path fill="#fff" d="M3.125 12.759c0-1.017 0-1.526.119-2.002a4 4 0 0 1 .513-1.19c.265-.414.634-.763 1.374-1.461l2.6-2.456c1.546-1.46 2.32-2.19 3.201-2.466a4 4 0 0 1 2.386 0c.882.275 1.655 1.006 3.201 2.466l2.6 2.456c.74.698 1.11 1.047 1.374 1.46a4 4 0 0 1 .513 1.191c.119.476.119.985.119 2.002V14.6c0 2.24 0 3.36-.436 4.216a4 4 0 0 1-1.748 1.748c-.803.41-1.84.434-3.816.436h-6c-1.977-.002-3.013-.027-3.816-.436a4 4 0 0 1-1.748-1.748c-.436-.856-.436-1.976-.436-4.216v-1.841Z"/>
  <path stroke="#97A3B6" stroke-linecap="round" stroke-linejoin="round" stroke-width="2" d="M15.125 21v-5a3 3 0 1 0-6 0v5m6 0c1.977-.002 3.013-.027 3.816-.436a4 4 0 0 0 1.748-1.748c.436-.856.436-1.976.436-4.216v-1.841c0-1.017 0-1.526-.119-2.002a4 4 0 0 0-.513-1.19c-.265-.414-.634-.763-1.374-1.461l-2.6-2.456c-1.546-1.46-2.32-2.19-3.201-2.466a4 4 0 0 0-2.386 0c-.882.275-1.655 1.006-3.201 2.466l-2.6 2.456c-.74.698-1.11 1.047-1.374 1.46a4 4 0 0 0-.513 1.191c-.119.476-.119.985-.119 2.002V14.6c0 2.24 0 3.36.436 4.216a4 4 0 0 0 1.748 1.748c.803.41 1.84.434 3.816.436m6 0h-6"/>
</svg>
