<svg xmlns="http://www.w3.org/2000/svg" width="19" height="19" fill="none" viewBox="0 0 19 19">
  <path stroke="#fff" stroke-linecap="round" stroke-linejoin="round" stroke-width="1.569" d="M17.222 6.69 13.09 9.32c-1.167.742-1.75 1.114-2.378 1.258a3.75 3.75 0 0 1-1.686 0c-.627-.144-1.21-.516-2.378-1.259L2.517 6.69m14.705 0c.147.72.147 1.684.147 3.18 0 2.1 0 3.15-.409 3.952a3.75 3.75 0 0 1-1.638 1.638c-.803.41-1.853.41-3.953.41h-3c-2.1 0-3.15 0-3.952-.41a3.75 3.75 0 0 1-1.64-1.638c-.408-.803-.408-1.853-.408-3.953 0-1.495 0-2.458.148-3.179m14.705 0a3.005 3.005 0 0 0-.262-.773 3.75 3.75 0 0 0-1.638-1.64c-.803-.408-1.853-.408-3.953-.408h-3c-2.1 0-3.15 0-3.952.409a3.75 3.75 0 0 0-1.64 1.639c-.117.23-.2.482-.26.773"/>
</svg>
