<svg xmlns="http://www.w3.org/2000/svg" width="20" height="21" fill="none" viewBox="0 0 20 21">
  <path fill="#FCC15B" d="M10.75 3c.533 4.197 2.192 6.785 6.75 7.5-4.325.679-6.192 3.106-6.75 7.5-.558-4.394-2.425-6.821-6.75-7.5 4.325-.679 6.192-3.106 6.75-7.5Zm-6 0c.207 1.255.96 2.037 2.25 2.25-1.29.213-2.043.995-2.25 2.25-.207-1.255-.96-2.037-2.25-2.25C3.755 5.043 4.537 4.29 4.75 3Z"/>
  <path stroke="#FCC15B" stroke-linecap="round" stroke-linejoin="round" stroke-width="1.625" d="M4.167 15.208v1.125m0 0v1.125m0-1.125h1.125m-1.125 0H3.042M10.75 3c.533 4.197 2.192 6.785 6.75 7.5-4.325.679-6.192 3.106-6.75 7.5-.558-4.394-2.425-6.821-6.75-7.5 4.325-.679 6.192-3.106 6.75-7.5Zm-6 0c.207 1.255.96 2.037 2.25 2.25-1.29.213-2.043.995-2.25 2.25-.207-1.255-.96-2.037-2.25-2.25C3.755 5.043 4.537 4.29 4.75 3Z"/>
</svg>
