<svg xmlns="http://www.w3.org/2000/svg" width="19" height="19" fill="none" viewBox="0 0 19 19">
  <path stroke="#fff" stroke-linecap="round" stroke-linejoin="round" stroke-width="1.569" d="M10.015 7.932a12.319 12.319 0 0 1-6.887 1.596m6.887-1.596a26.15 26.15 0 0 1 1.246 2.759m-1.246-2.759A26.382 26.382 0 0 0 7.221 3.66m2.794 4.273a12.437 12.437 0 0 0 3.886-3.477m-2.64 6.236a12.479 12.479 0 0 1 5.347-.43m-5.347.43a26.162 26.162 0 0 1 1.42 5.316m-1.42-5.316a12.392 12.392 0 0 0-6.015 4.096M7.221 3.66a6.728 6.728 0 0 1 2.648-.54 6.72 6.72 0 0 1 4.032 1.336m-6.68-.796a6.753 6.753 0 0 0-4.093 5.869M13.9 4.455a6.74 6.74 0 0 1 2.707 5.805m0 0a6.753 6.753 0 0 1-3.926 5.747m0 0a6.726 6.726 0 0 1-2.813.612 6.726 6.726 0 0 1-4.623-1.832m0 0a6.731 6.731 0 0 1-2.118-5.26"/>
</svg>
