<svg width="158" height="179" viewBox="0 0 158 179" fill="none" xmlns="http://www.w3.org/2000/svg">
<g clip-path="url(#clip0_819_5575)">
<rect width="158" height="179" rx="12" fill="url(#paint0_linear_819_5575)"/>
<g opacity="0.4">
<path d="M-44.0972 123.397C-44.0953 114.649 -39.9798 106.412 -32.9862 101.157L67.1635 25.9097C74.3316 20.5239 84.1971 20.5261 91.3627 25.9151L191.479 101.207C198.47 106.465 202.582 114.705 202.58 123.452L202.554 236.255C202.551 251.623 190.09 264.078 174.722 264.075L-16.3034 264.032C-31.671 264.028 -44.1261 251.568 -44.1226 236.2L-44.0972 123.397Z" fill="url(#paint1_linear_819_5575)" fill-opacity="0.3"/>
<path d="M-75.4831 102.037C-75.4806 90.7562 -70.1732 80.1331 -61.1543 73.3567L67.9996 -23.6829C77.2437 -30.6284 89.9663 -30.6255 99.2072 -23.6759L228.317 73.4218C237.333 80.2023 242.636 90.8278 242.633 102.109L242.601 247.581C242.596 267.399 226.527 283.461 206.708 283.457L-39.6399 283.401C-59.4581 283.397 -75.5203 267.327 -75.5159 247.509L-75.4831 102.037Z" fill="url(#paint2_linear_819_5575)" fill-opacity="0.3"/>
<path d="M-136.945 87.7685C-136.942 72.7715 -129.886 58.6491 -117.897 49.6406L53.8008 -79.364C66.0898 -88.5974 83.0033 -88.5936 95.2882 -79.3547L266.927 49.7272C278.913 58.7412 285.963 72.8668 285.959 87.8638L285.916 281.255C285.91 307.601 264.547 328.954 238.201 328.948L-89.2954 328.874C-115.642 328.868 -136.995 307.506 -136.989 281.159L-136.945 87.7685Z" fill="url(#paint3_linear_819_5575)" fill-opacity="0.3"/>
<path d="M-12.1021 148.571C-12.1006 141.984 -9.00171 135.781 -3.73567 131.824L71.6752 75.1646C77.0726 71.1092 84.5012 71.1109 89.8968 75.1687L165.282 131.862C170.546 135.821 173.642 142.026 173.641 148.612L173.622 233.551C173.619 245.123 164.237 254.501 152.665 254.498L8.82617 254.466C-2.74535 254.463 -12.1238 245.081 -12.1212 233.509L-12.1021 148.571Z" fill="url(#paint4_linear_819_5575)" fill-opacity="0.3"/>
</g>
</g>
<defs>
<linearGradient id="paint0_linear_819_5575" x1="-5.44077" y1="-29.2597" x2="150.11" y2="-11.8342" gradientUnits="userSpaceOnUse">
<stop stop-color="#6344FE"/>
<stop offset="1" stop-color="#8674FF"/>
</linearGradient>
<linearGradient id="paint1_linear_819_5575" x1="79.2652" y1="16.8171" x2="79.2095" y2="264.053" gradientUnits="userSpaceOnUse">
<stop stop-color="white"/>
<stop offset="1" stop-color="#7D69FF"/>
</linearGradient>
<linearGradient id="paint2_linear_819_5575" x1="83.606" y1="-35.4088" x2="83.5343" y2="283.429" gradientUnits="userSpaceOnUse">
<stop stop-color="white"/>
<stop offset="1" stop-color="#7D69FF"/>
</linearGradient>
<linearGradient id="paint3_linear_819_5575" x1="74.548" y1="-94.9524" x2="74.4526" y2="328.911" gradientUnits="userSpaceOnUse">
<stop stop-color="white"/>
<stop offset="1" stop-color="#7D69FF"/>
</linearGradient>
<linearGradient id="paint4_linear_819_5575" x1="80.7875" y1="68.318" x2="80.7456" y2="254.482" gradientUnits="userSpaceOnUse">
<stop stop-color="white"/>
<stop offset="1" stop-color="#7D69FF"/>
</linearGradient>
<clipPath id="clip0_819_5575">
<rect width="158" height="179" rx="12" fill="white"/>
</clipPath>
</defs>
</svg>
