<svg xmlns="http://www.w3.org/2000/svg" width="25" height="24" fill="none" viewBox="0 0 25 24">
  <path fill="#5331FD" stroke="#fff" stroke-linecap="round" stroke-linejoin="round" stroke-width="2" d="M3.005 6.015c-.703-2.391 1.538-4.632 3.93-3.863A54.873 54.873 0 0 1 19.81 8.225c.112.072.243.152.387.24.45.272 1.016.616 1.46 1.005.647.57 1.218 1.374 1.218 2.53 0 1.157-.57 1.961-1.219 2.53-.443.39-1.01.733-1.459 1.006-.144.087-.275.167-.387.24a54.871 54.871 0 0 1-12.874 6.073c-2.393.768-4.634-1.472-3.93-3.863l1.255-4.268A1 1 0 0 1 5.22 13h5.489a1 1 0 1 0 0-2H5.22a1 1 0 0 1-.96-.717L3.006 6.015Z"/>
</svg>
