<svg xmlns="http://www.w3.org/2000/svg" width="25" height="24" fill="none" viewBox="0 0 25 24">
  <path fill="#5331FD" stroke="#5331FD" stroke-linecap="round" stroke-linejoin="round" d="M13.616 7.043a4.5 4.5 0 0 0 1.966 1.967h0c.568.289 1.157.396 1.75.444h0c.562.046 1.243.046 2.033.046h1.76v6.143c0 1.091 0 1.942-.056 2.625-.057.698-.175 1.265-.434 1.775h0a4.5 4.5 0 0 1-1.967 1.967c-.51.26-1.077.377-1.775.434-.683.056-1.534.056-2.625.056h-3.286c-1.091 0-1.942 0-2.625-.056-.698-.057-1.265-.174-1.775-.434a4.5 4.5 0 0 1-1.967-1.967c-.26-.51-.377-1.077-.434-1.775l-.498.04.498-.04c-.056-.683-.056-1.534-.056-2.625V8.357c0-1.091 0-1.942.056-2.625l-.498-.04.498.04c.057-.698.175-1.265.434-1.775L4.17 3.73l.445.227a4.5 4.5 0 0 1 1.967-1.966l-.227-.446.227.446c.51-.26 1.077-.378 1.775-.435C9.04 1.5 9.891 1.5 10.982 1.5h2.143v1.761c0 .789 0 1.47.046 2.032.048.593.155 1.183.445 1.75Zm0 0 .445-.227-.445.227s0 0 0 0Zm2.545-1.995h0c-.035-.425-.036-.983-.036-1.848V2.05c.066.036.13.074.194.113h0c.446.273.827.65 1.454 1.277h0l1.412 1.413h0c.626.626 1.004 1.007 1.277 1.453h0a4.5 4.5 0 0 1 .113.194h-1.15c-.865 0-1.423-.001-1.848-.036-.408-.033-.559-.09-.633-.127a1.5 1.5 0 0 1-.655-.656h0c-.038-.074-.095-.225-.128-.633Z"/>
</svg>
