<svg xmlns="http://www.w3.org/2000/svg" width="16" height="16" fill="none" viewBox="0 0 16 16">
  <path stroke="#97A3B6" stroke-linecap="round" stroke-linejoin="round" stroke-width="1.333" d="M1.334 6h13.333M4 8.667h2m4.4 4.666H5.6c-1.493 0-2.24 0-2.81-.29a2.667 2.667 0 0 1-1.166-1.166c-.29-.57-.29-1.317-.29-2.81V6.933c0-1.493 0-2.24.29-2.81A2.67 2.67 0 0 1 2.79 2.957c.57-.29 1.317-.29 2.81-.29h4.8c1.494 0 2.24 0 2.811.29.502.256.91.664 1.165 1.166.291.57.291 1.317.291 2.81v2.134c0 1.493 0 2.24-.29 2.81a2.67 2.67 0 0 1-1.166 1.166c-.57.29-1.317.29-2.81.29Z"/>
</svg>
